<?xml version="1.0" encoding="utf-8"?>
<svg xmlns="http://www.w3.org/2000/svg" width="256" height="256" fill="none" viewBox="0 0 256 256" xmlns:bx="https://boxy-svg.com"><defs><bx:export><bx:file format="svg"/></bx:export></defs><path d="M 235.88 52.447 C 235.88 81.259 147.855 167.671 128.168 173.861 C 108.481 180.051 60.831 119.622 79.497 123.341 C 87.272 124.89 110.308 123.708 131.755 104.397 C 161.8 77.345 192.495 28.445 206.883 22.335 C 231.541 11.863 235.88 23.635 235.88 52.447 Z" style="fill: rgb(216, 216, 216); stroke: rgba(0, 0, 0, 0);"/><path d="M 22.516 22.366 L 56.404 22.335 C 59.22 22.335 79.497 50.93 103.138 76.978 L 128 111.198 C 128 114.014 119.76 118.58 116.944 118.58 L 57.175 114.109 C 54.359 114.109 17.417 125.717 17.417 122.901 L 17.417 27.465 C 17.417 24.649 19.7 22.366 22.516 22.366 Z" style="fill: rgb(216, 216, 216); stroke: rgb(0, 0, 0);"/><path d="M 18.818 233.612 L 18.818 164.818 C 18.818 138.935 31.591 114.109 57.637 114.109 L 64.496 114.109 L 79.497 132.467 L 79.497 183.731 C 79.497 211.033 55.608 233.612 18.818 233.612 Z" stroke-miterlimit="10" style="fill: rgba(255, 255, 255, 0); stroke-width: 15px; stroke: rgb(255, 255, 255);"/><path d="M 176.593 130.993 L 235.88 59.484 L 237.173 233.665 L 176.593 233.665 L 176.593 131.048 L 176.593 130.993 Z" stroke-miterlimit="10" style="stroke-width: 15px; stroke: rgb(0, 0, 0); visibility: hidden; fill: rgba(224, 224, 224, 0);"/><path d="M 66.843 114.436 L 108.828 166.237 C 118.753 178.155 136.574 177.39 146.436 165.336 L 235.88 62.373" stroke-miterlimit="10" style="stroke-width: 15px; stroke: rgb(255, 255, 255);"/><path d="M 237.182 48.053 C 237.182 33.57 225.955 22.335 212.145 22.335 C 203.066 22.335 195.98 26.538 191.604 33.097 L 127.969 108.996 C 121.2 117.202 113.221 121.132 101.44 120.313 C 89.896 119.513 80.734 113.791 67.817 113.791 C 46.356 111.589 32.655 119.786 22.43 138.527 L 19.154 145.786 L 19.154 22.608 L 57.072 22.608 L 128 107.851 L 191.358 32.769 C 196.78 26.211 203.376 22.38 212.145 22.38 C 225.955 22.38 237.182 33.615 237.182 47.106 L 237.182 233.602 L 176.602 233.602 L 176.602 130.985 L 235.326 60.926 C 236.581 57.197 237.182 53.029 237.182 48.072 L 237.182 48.053 Z" stroke-miterlimit="10" style="stroke-width: 15px; fill: rgba(224, 224, 224, 0); stroke: rgb(255, 255, 255);"/></svg>