<svg width="24" height="24" viewBox="0 0 24 24" fill="none" xmlns="http://www.w3.org/2000/svg">
  <g transform="translate(0 -1.4)">
    <g transform="translate(12 12) scale(1.012) translate(-12 -12)">
      <path d="M12 20.1C11.76 20.1 11.52 20.02 11.32 19.86C8.14 17.24 6.05 15.36 4.97 13.78C3.92 12.24 3.79 10.9 4.25 9.56C4.72 8.18 5.84 7.18 7.2 6.9C8.54 6.63 9.89 7.08 10.86 8.08L12 9.26L13.14 8.08C14.11 7.08 15.46 6.63 16.8 6.9C18.16 7.18 19.28 8.18 19.75 9.56C20.21 10.9 20.08 12.24 19.03 13.78C17.95 15.36 15.86 17.24 12.68 19.86C12.48 20.02 12.24 20.1 12 20.1Z" stroke="#C8CDD2" stroke-width="1.8" stroke-linejoin="round"/>
    </g>
  </g>
</svg>
